<mxfile host="NZu">
  <diagram id="7iq" name="Style-Plain">
    <mxGraphModel dx="0" dy="0" background="#FAFAFA" grid="0" gridSize="10" guides="1" tooltips="1" connect="1" arrows="1" fold="1" page="1" pageScale="1" pageWidth="1169" pageHeight="827" math="0" shadow="0">
      <root>
        <mxCell id="page_root_7iq" parent="7iq"/>
        <mxCell id="node_root_7iq" parent="page_root_7iq"/>
        <mxCell id="7iq-2" value="h1" style="whiteSpace=wrap;html=1;fontColor=#1F2D3D;text;fontSize=89;fontStyle=1;fillColor=none" vertex="1" parent="node_root_7iq">
          <mxGeometry x="60" y="85" width="100" height="50" as="geometry"/>
        </mxCell>
        <mxCell id="7iq-3" value="h2" style="whiteSpace=wrap;html=1;fontColor=#1F2D3D;text;fontSize=67;fontStyle=1;fillColor=none" vertex="1" parent="node_root_7iq">
          <mxGeometry x="280" y="85" width="100" height="50" as="geometry"/>
        </mxCell>
        <mxCell id="7iq-4" value="h3" style="whiteSpace=wrap;html=1;fontColor=#1F2D3D;text;fontSize=50;fontStyle=1;fillColor=none" vertex="1" parent="node_root_7iq">
          <mxGeometry x="500" y="85" width="100" height="50" as="geometry"/>
        </mxCell>
        <mxCell id="7iq-5" value="h4" style="whiteSpace=wrap;html=1;fontColor=#1F2D3D;text;fontSize=37;fontStyle=1;fillColor=none" vertex="1" parent="node_root_7iq">
          <mxGeometry x="720" y="85" width="100" height="50" as="geometry"/>
        </mxCell>
        <mxCell id="7iq-6" value="h5" style="whiteSpace=wrap;html=1;fontColor=#1F2D3D;text;fontSize=28;fontStyle=1;fillColor=none" vertex="1" parent="node_root_7iq">
          <mxGeometry x="940" y="85" width="100" height="50" as="geometry"/>
        </mxCell>
        <mxCell id="7iq-7" value="h6" style="whiteSpace=wrap;html=1;fontColor=#1F2D3D;text;fontSize=21;fontStyle=1;fillColor=none" vertex="1" parent="node_root_7iq">
          <mxGeometry x="60" y="305" width="100" height="50" as="geometry"/>
        </mxCell>
        <mxCell id="7iq-8" value="p" style="whiteSpace=wrap;html=1;fontColor=#1F2D3D;text;fontSize=16;fontStyle=1;fillColor=none" vertex="1" parent="node_root_7iq">
          <mxGeometry x="280" y="305" width="100" height="50" as="geometry"/>
        </mxCell>
        <mxCell id="7iq-9" value="actor" style="whiteSpace=wrap;html=1;fillColor=#ffe6cc;strokeColor=#d79b00;fontColor=#333333;shape=actor" vertex="1" parent="node_root_7iq">
          <mxGeometry x="530" y="305" width="40" height="50" as="geometry"/>
        </mxCell>
        <mxCell id="7iq-10" value="actor2" style="whiteSpace=wrap;html=1;fillColor=#ffe6cc;strokeColor=#d79b00;fontColor=#333333;shape=umlActor;verticalLabelPosition=bottom;outlineConnect=1" vertex="1" parent="node_root_7iq">
          <mxGeometry x="755" y="305" width="30" height="50" as="geometry"/>
        </mxCell>
        <mxCell id="7iq-11" value="callout" style="whiteSpace=wrap;html=1;fillColor=#ffe6cc;strokeColor=#d79b00;fontColor=#333333;shape=callout" vertex="1" parent="node_root_7iq">
          <mxGeometry x="910" y="270" width="160" height="120" as="geometry"/>
        </mxCell>
        <mxCell id="7iq-12" value="callout2" style="whiteSpace=wrap;html=1;fillColor=#ffe6cc;strokeColor=#d79b00;fontColor=#333333;shape=mxgraph.basic.oval_callout" vertex="1" parent="node_root_7iq">
          <mxGeometry x="30" y="470" width="160" height="160" as="geometry"/>
        </mxCell>
        <mxCell id="7iq-13" value="callout3" style="whiteSpace=wrap;html=1;fillColor=#ffe6cc;strokeColor=#d79b00;fontColor=#333333;shape=mxgraph.basic.cloud_callout" vertex="1" parent="node_root_7iq">
          <mxGeometry x="250" y="470" width="160" height="160" as="geometry"/>
        </mxCell>
        <mxCell id="7iq-14" value="callout4" style="whiteSpace=wrap;html=1;fillColor=#ffe6cc;strokeColor=#d79b00;fontColor=#333333;shape=mxgraph.basic.roundRectCallout;dx=30;dy=15;size=5;boundedLbl=1" vertex="1" parent="node_root_7iq">
          <mxGeometry x="470" y="490" width="160" height="120" as="geometry"/>
        </mxCell>
        <mxCell id="7iq-15" value="circle" style="whiteSpace=wrap;html=1;fillColor=#ffe6cc;strokeColor=#d79b00;fontColor=#333333;ellipse" vertex="1" parent="node_root_7iq">
          <mxGeometry x="690" y="470" width="160" height="160" as="geometry"/>
        </mxCell>
        <mxCell id="7iq-16" value="cloud" style="whiteSpace=wrap;html=1;fillColor=#ffe6cc;strokeColor=#d79b00;fontColor=#333333;shape=cloud" vertex="1" parent="node_root_7iq">
          <mxGeometry x="910" y="470" width="160" height="160" as="geometry"/>
        </mxCell>
        <mxCell id="7iq-17" value="container" style="whiteSpace=wrap;html=1;fillColor=#ffe6cc;strokeColor=#d79b00;fontColor=#333333;swimlane" vertex="1" parent="node_root_7iq">
          <mxGeometry x="30" y="690" width="160" height="160" as="geometry"/>
        </mxCell>
        <mxCell id="7iq-18" value="container2" style="whiteSpace=wrap;html=1;fillColor=#ffe6cc;strokeColor=#d79b00;fontColor=#333333;swimlane;horizontal=0" vertex="1" parent="node_root_7iq">
          <mxGeometry x="250" y="690" width="160" height="160" as="geometry"/>
        </mxCell>
        <mxCell id="7iq-19" value="container3" style="whiteSpace=wrap;html=1;fillColor=#ffe6cc;strokeColor=#d79b00;fontColor=#333333;swimlane;startSize=50" vertex="1" parent="node_root_7iq">
          <mxGeometry x="470" y="690" width="160" height="160" as="geometry"/>
        </mxCell>
        <mxCell id="7iq-20" value="container4" style="whiteSpace=wrap;html=1;fillColor=#ffe6cc;strokeColor=#d79b00;fontColor=#333333;swimlane;resizable=0" vertex="1" parent="node_root_7iq">
          <mxGeometry x="690" y="690" width="160" height="160" as="geometry"/>
        </mxCell>
        <mxCell id="7iq-21" value="cross" style="whiteSpace=wrap;html=1;fillColor=#ffe6cc;strokeColor=#d79b00;fontColor=#333333;verticalLabelPosition=bottom;verticalAlign=top;shape=mxgraph.basic.x" vertex="1" parent="node_root_7iq">
          <mxGeometry x="965" y="745" width="50" height="50" as="geometry"/>
        </mxCell>
        <mxCell id="7iq-22" value="envelop" style="whiteSpace=wrap;html=1;fillColor=#ffe6cc;strokeColor=#d79b00;fontColor=#333333;shape=message" vertex="1" parent="node_root_7iq">
          <mxGeometry x="30" y="940" width="160" height="100" as="geometry"/>
        </mxCell>
        <mxCell id="7iq-23" value="database" style="whiteSpace=wrap;html=1;fillColor=#ffe6cc;strokeColor=#d79b00;fontColor=#333333;shape=mxgraph.flowchart.database;strokeWidth=1" vertex="1" parent="node_root_7iq">
          <mxGeometry x="250" y="950" width="160" height="80" as="geometry"/>
        </mxCell>
        <mxCell id="7iq-24" value="db_json" style="whiteSpace=wrap;html=1;fillColor=#ffe6cc;strokeColor=#d79b00;fontColor=#333333;shape=mxgraph.flowchart.database;strokeWidth=1" vertex="1" parent="node_root_7iq">
          <mxGeometry x="470" y="970" width="160" height="40" as="geometry"/>
        </mxCell>
        <mxCell id="7iq-25" value="diamond" style="whiteSpace=wrap;html=1;fillColor=#ffe6cc;strokeColor=#d79b00;fontColor=#333333;rhombus" vertex="1" parent="node_root_7iq">
          <mxGeometry x="720" y="940" width="100" height="100" as="geometry"/>
        </mxCell>
        <mxCell id="7iq-26" value="document" style="whiteSpace=wrap;html=1;fillColor=#ffe6cc;strokeColor=#d79b00;fontColor=#333333;shape=mxgraph.basic.document" vertex="1" parent="node_root_7iq">
          <mxGeometry x="910" y="910" width="160" height="160" as="geometry"/>
        </mxCell>
        <mxCell id="7iq-27" value="ellipse" style="whiteSpace=wrap;html=1;fillColor=#ffe6cc;strokeColor=#d79b00;fontColor=#333333;ellipse" vertex="1" parent="node_root_7iq">
          <mxGeometry x="10" y="1150" width="200" height="120" as="geometry"/>
        </mxCell>
        <mxCell id="7iq-28" value="group" style="whiteSpace=wrap;html=1;fillColor=#ffe6cc;strokeColor=#d79b00;fontColor=#333333;fontSize=20;verticalAlign=top" vertex="1" parent="node_root_7iq">
          <mxGeometry x="225" y="1105" width="210" height="210" as="geometry"/>
        </mxCell>
        <mxCell id="7iq-29" value="hexagon" style="whiteSpace=wrap;html=1;fillColor=#ffe6cc;strokeColor=#d79b00;fontColor=#333333;shape=hexagon" vertex="1" parent="node_root_7iq">
          <mxGeometry x="450" y="1150" width="200" height="120" as="geometry"/>
        </mxCell>
        <mxCell id="7iq-30" value="interface" style="whiteSpace=wrap;html=1;fillColor=#ffe6cc;strokeColor=#d79b00;fontColor=#333333;align=left;overflow=fill;fontSize=12;fontFamily=Helvetica" vertex="1" parent="node_root_7iq">
          <mxGeometry x="690" y="1130" width="160" height="160" as="geometry"/>
        </mxCell>
        <mxCell id="7iq-31" value="klass" style="whiteSpace=wrap;html=1;fillColor=#ffe6cc;strokeColor=#d79b00;fontColor=#333333;align=left;overflow=fill;fontSize=12;fontFamily=Helvetica" vertex="1" parent="node_root_7iq">
          <mxGeometry x="910" y="1130" width="160" height="160" as="geometry"/>
        </mxCell>
        <mxCell id="7iq-32" value="note" style="whiteSpace=wrap;html=1;fillColor=#ffe6cc;strokeColor=#d79b00;fontColor=#333333;shape=note" vertex="1" parent="node_root_7iq">
          <mxGeometry x="30" y="1350" width="160" height="160" as="geometry"/>
        </mxCell>
        <mxCell id="7iq-33" value="process" style="whiteSpace=wrap;html=1;fillColor=#ffe6cc;strokeColor=#d79b00;fontColor=#333333;shape=process" vertex="1" parent="node_root_7iq">
          <mxGeometry x="230" y="1370" width="200" height="120" as="geometry"/>
        </mxCell>
        <mxCell id="7iq-34" value="rectangle" style="whiteSpace=wrap;html=1;fillColor=#ffe6cc;strokeColor=#d79b00;fontColor=#333333" vertex="1" parent="node_root_7iq">
          <mxGeometry x="450" y="1370" width="200" height="120" as="geometry"/>
        </mxCell>
        <mxCell id="7iq-35" value="rectangle2" style="whiteSpace=wrap;html=1;fillColor=#ffe6cc;strokeColor=#d79b00;fontColor=#333333;shape=mxgraph.basic.cloud_rect" vertex="1" parent="node_root_7iq">
          <mxGeometry x="670" y="1370" width="200" height="120" as="geometry"/>
        </mxCell>
        <mxCell id="7iq-36" value="square" style="whiteSpace=wrap;html=1;fillColor=#ffe6cc;strokeColor=#d79b00;fontColor=#333333" vertex="1" parent="node_root_7iq">
          <mxGeometry x="910" y="1350" width="160" height="160" as="geometry"/>
        </mxCell>
        <mxCell id="7iq-37" value="step" style="whiteSpace=wrap;html=1;fillColor=#ffe6cc;strokeColor=#d79b00;fontColor=#333333;shape=step;perimeter=stepPerimeter;fixedSize=1" vertex="1" parent="node_root_7iq">
          <mxGeometry x="50" y="1610" width="120" height="80" as="geometry"/>
        </mxCell>
        <mxCell id="7iq-38" value="tick" style="whiteSpace=wrap;html=1;fillColor=#ffe6cc;strokeColor=#d79b00;fontColor=#333333;verticalLabelPosition=bottom;verticalAlign=top;shape=mxgraph.basic.tick" vertex="1" parent="node_root_7iq">
          <mxGeometry x="305" y="1625" width="50" height="50" as="geometry"/>
        </mxCell>
        <mxCell id="7iq-39" value="todo" style="whiteSpace=wrap;html=1;fillColor=#ffe6cc;strokeColor=#d79b00;fontColor=#333333" vertex="1" parent="node_root_7iq">
          <mxGeometry x="400" y="1620" width="300" height="60" as="geometry"/>
        </mxCell>
        <mxCell id="7iq-40" value="face" style="whiteSpace=wrap;html=1;fillColor=#ffe6cc;strokeColor=#d79b00;fontColor=#333333;verticalLabelPosition=bottom;verticalAlign=top;shape=mxgraph.basic.smiley" vertex="1" parent="node_root_7iq">
          <mxGeometry x="720" y="1600" width="100" height="100" as="geometry"/>
        </mxCell>
        <mxCell id="7iq-41" value="triangle" style="whiteSpace=wrap;html=1;fillColor=#ffe6cc;strokeColor=#d79b00;fontColor=#333333;triangle" vertex="1" parent="node_root_7iq">
          <mxGeometry x="940" y="1600" width="100" height="100" as="geometry"/>
        </mxCell>
        <mxCell id="7iq-42" value="embed_row" style="whiteSpace=wrap;html=1;fillColor=#ffe6cc;strokeColor=#d79b00;fontColor=#333333;shape=partialRectangle;collapsible=0;dropTarget=0;pointerEvents=0;top=0;left=0;bottom=1;right=0;points=[[0,0.5],[1,0.5]];portConstraint=eastwest" vertex="1" parent="node_root_7iq">
          <mxGeometry x="10" y="1850" width="200" height="40" as="geometry"/>
        </mxCell>
        <mxCell id="7iq-43" value="embed_col50" style="whiteSpace=wrap;html=1;fillColor=#ffe6cc;strokeColor=#d79b00;fontColor=#333333;shape=partialRectangle;connectable=0;top=0;left=0;bottom=0;right=0;fontStyle=1;overflow=hidden" vertex="1" parent="node_root_7iq">
          <mxGeometry x="305" y="1850" width="50" height="40" as="geometry"/>
        </mxCell>
        <mxCell id="7iq-44" value="embed_col200" style="whiteSpace=wrap;html=1;fillColor=#ffe6cc;strokeColor=#d79b00;fontColor=#333333;shape=partialRectangle;connectable=0;top=0;left=0;bottom=0;right=0;align=left;spacingLeft=6;overflow=hidden" vertex="1" parent="node_root_7iq">
          <mxGeometry x="475" y="1850" width="150" height="40" as="geometry"/>
        </mxCell>
      </root>
    </mxGraphModel>
  </diagram>
  <diagram id="q6k" name="Style-Shadow">
    <mxGraphModel dx="0" dy="0" background="#FAFAFA" grid="0" gridSize="10" guides="1" tooltips="1" connect="1" arrows="1" fold="1" page="1" pageScale="1" pageWidth="1169" pageHeight="827" math="0" shadow="0">
      <root>
        <mxCell id="page_root_q6k" parent="q6k"/>
        <mxCell id="node_root_q6k" parent="page_root_q6k"/>
        <mxCell id="q6k-2" value="h1" style="whiteSpace=wrap;html=1;shadow=1;fontColor=#1F2D3D;text;fontSize=89;fontStyle=1;fillColor=none" vertex="1" parent="node_root_q6k">
          <mxGeometry x="60" y="85" width="100" height="50" as="geometry"/>
        </mxCell>
        <mxCell id="q6k-3" value="h2" style="whiteSpace=wrap;html=1;shadow=1;fontColor=#1F2D3D;text;fontSize=67;fontStyle=1;fillColor=none" vertex="1" parent="node_root_q6k">
          <mxGeometry x="280" y="85" width="100" height="50" as="geometry"/>
        </mxCell>
        <mxCell id="q6k-4" value="h3" style="whiteSpace=wrap;html=1;shadow=1;fontColor=#1F2D3D;text;fontSize=50;fontStyle=1;fillColor=none" vertex="1" parent="node_root_q6k">
          <mxGeometry x="500" y="85" width="100" height="50" as="geometry"/>
        </mxCell>
        <mxCell id="q6k-5" value="h4" style="whiteSpace=wrap;html=1;shadow=1;fontColor=#1F2D3D;text;fontSize=37;fontStyle=1;fillColor=none" vertex="1" parent="node_root_q6k">
          <mxGeometry x="720" y="85" width="100" height="50" as="geometry"/>
        </mxCell>
        <mxCell id="q6k-6" value="h5" style="whiteSpace=wrap;html=1;shadow=1;fontColor=#1F2D3D;text;fontSize=28;fontStyle=1;fillColor=none" vertex="1" parent="node_root_q6k">
          <mxGeometry x="940" y="85" width="100" height="50" as="geometry"/>
        </mxCell>
        <mxCell id="q6k-7" value="h6" style="whiteSpace=wrap;html=1;shadow=1;fontColor=#1F2D3D;text;fontSize=21;fontStyle=1;fillColor=none" vertex="1" parent="node_root_q6k">
          <mxGeometry x="60" y="305" width="100" height="50" as="geometry"/>
        </mxCell>
        <mxCell id="q6k-8" value="p" style="whiteSpace=wrap;html=1;shadow=1;fontColor=#1F2D3D;text;fontSize=16;fontStyle=1;fillColor=none" vertex="1" parent="node_root_q6k">
          <mxGeometry x="280" y="305" width="100" height="50" as="geometry"/>
        </mxCell>
        <mxCell id="q6k-9" value="actor" style="whiteSpace=wrap;html=1;shadow=1;fillColor=#ffe6cc;strokeColor=#d79b00;fontColor=#333333;shape=actor" vertex="1" parent="node_root_q6k">
          <mxGeometry x="530" y="305" width="40" height="50" as="geometry"/>
        </mxCell>
        <mxCell id="q6k-10" value="actor2" style="whiteSpace=wrap;html=1;shadow=1;fillColor=#ffe6cc;strokeColor=#d79b00;fontColor=#333333;shape=umlActor;verticalLabelPosition=bottom;outlineConnect=1" vertex="1" parent="node_root_q6k">
          <mxGeometry x="755" y="305" width="30" height="50" as="geometry"/>
        </mxCell>
        <mxCell id="q6k-11" value="callout" style="whiteSpace=wrap;html=1;shadow=1;fillColor=#ffe6cc;strokeColor=#d79b00;fontColor=#333333;shape=callout" vertex="1" parent="node_root_q6k">
          <mxGeometry x="910" y="270" width="160" height="120" as="geometry"/>
        </mxCell>
        <mxCell id="q6k-12" value="callout2" style="whiteSpace=wrap;html=1;shadow=1;fillColor=#ffe6cc;strokeColor=#d79b00;fontColor=#333333;shape=mxgraph.basic.oval_callout" vertex="1" parent="node_root_q6k">
          <mxGeometry x="30" y="470" width="160" height="160" as="geometry"/>
        </mxCell>
        <mxCell id="q6k-13" value="callout3" style="whiteSpace=wrap;html=1;shadow=1;fillColor=#ffe6cc;strokeColor=#d79b00;fontColor=#333333;shape=mxgraph.basic.cloud_callout" vertex="1" parent="node_root_q6k">
          <mxGeometry x="250" y="470" width="160" height="160" as="geometry"/>
        </mxCell>
        <mxCell id="q6k-14" value="callout4" style="whiteSpace=wrap;html=1;shadow=1;fillColor=#ffe6cc;strokeColor=#d79b00;fontColor=#333333;shape=mxgraph.basic.roundRectCallout;dx=30;dy=15;size=5;boundedLbl=1" vertex="1" parent="node_root_q6k">
          <mxGeometry x="470" y="490" width="160" height="120" as="geometry"/>
        </mxCell>
        <mxCell id="q6k-15" value="circle" style="whiteSpace=wrap;html=1;shadow=1;fillColor=#ffe6cc;strokeColor=#d79b00;fontColor=#333333;ellipse" vertex="1" parent="node_root_q6k">
          <mxGeometry x="690" y="470" width="160" height="160" as="geometry"/>
        </mxCell>
        <mxCell id="q6k-16" value="cloud" style="whiteSpace=wrap;html=1;shadow=1;fillColor=#ffe6cc;strokeColor=#d79b00;fontColor=#333333;shape=cloud" vertex="1" parent="node_root_q6k">
          <mxGeometry x="910" y="470" width="160" height="160" as="geometry"/>
        </mxCell>
        <mxCell id="q6k-17" value="container" style="whiteSpace=wrap;html=1;shadow=1;fillColor=#ffe6cc;strokeColor=#d79b00;fontColor=#333333;swimlane" vertex="1" parent="node_root_q6k">
          <mxGeometry x="30" y="690" width="160" height="160" as="geometry"/>
        </mxCell>
        <mxCell id="q6k-18" value="container2" style="whiteSpace=wrap;html=1;shadow=1;fillColor=#ffe6cc;strokeColor=#d79b00;fontColor=#333333;swimlane;horizontal=0" vertex="1" parent="node_root_q6k">
          <mxGeometry x="250" y="690" width="160" height="160" as="geometry"/>
        </mxCell>
        <mxCell id="q6k-19" value="container3" style="whiteSpace=wrap;html=1;shadow=1;fillColor=#ffe6cc;strokeColor=#d79b00;fontColor=#333333;swimlane;startSize=50" vertex="1" parent="node_root_q6k">
          <mxGeometry x="470" y="690" width="160" height="160" as="geometry"/>
        </mxCell>
        <mxCell id="q6k-20" value="container4" style="whiteSpace=wrap;html=1;shadow=1;fillColor=#ffe6cc;strokeColor=#d79b00;fontColor=#333333;swimlane;resizable=0" vertex="1" parent="node_root_q6k">
          <mxGeometry x="690" y="690" width="160" height="160" as="geometry"/>
        </mxCell>
        <mxCell id="q6k-21" value="cross" style="whiteSpace=wrap;html=1;shadow=1;fillColor=#ffe6cc;strokeColor=#d79b00;fontColor=#333333;verticalLabelPosition=bottom;verticalAlign=top;shape=mxgraph.basic.x" vertex="1" parent="node_root_q6k">
          <mxGeometry x="965" y="745" width="50" height="50" as="geometry"/>
        </mxCell>
        <mxCell id="q6k-22" value="envelop" style="whiteSpace=wrap;html=1;shadow=1;fillColor=#ffe6cc;strokeColor=#d79b00;fontColor=#333333;shape=message" vertex="1" parent="node_root_q6k">
          <mxGeometry x="30" y="940" width="160" height="100" as="geometry"/>
        </mxCell>
        <mxCell id="q6k-23" value="database" style="whiteSpace=wrap;html=1;shadow=1;fillColor=#ffe6cc;strokeColor=#d79b00;fontColor=#333333;shape=mxgraph.flowchart.database;strokeWidth=1" vertex="1" parent="node_root_q6k">
          <mxGeometry x="250" y="950" width="160" height="80" as="geometry"/>
        </mxCell>
        <mxCell id="q6k-24" value="db_json" style="whiteSpace=wrap;html=1;shadow=1;fillColor=#ffe6cc;strokeColor=#d79b00;fontColor=#333333;shape=mxgraph.flowchart.database;strokeWidth=1" vertex="1" parent="node_root_q6k">
          <mxGeometry x="470" y="970" width="160" height="40" as="geometry"/>
        </mxCell>
        <mxCell id="q6k-25" value="diamond" style="whiteSpace=wrap;html=1;shadow=1;fillColor=#ffe6cc;strokeColor=#d79b00;fontColor=#333333;rhombus" vertex="1" parent="node_root_q6k">
          <mxGeometry x="720" y="940" width="100" height="100" as="geometry"/>
        </mxCell>
        <mxCell id="q6k-26" value="document" style="whiteSpace=wrap;html=1;shadow=1;fillColor=#ffe6cc;strokeColor=#d79b00;fontColor=#333333;shape=mxgraph.basic.document" vertex="1" parent="node_root_q6k">
          <mxGeometry x="910" y="910" width="160" height="160" as="geometry"/>
        </mxCell>
        <mxCell id="q6k-27" value="ellipse" style="whiteSpace=wrap;html=1;shadow=1;fillColor=#ffe6cc;strokeColor=#d79b00;fontColor=#333333;ellipse" vertex="1" parent="node_root_q6k">
          <mxGeometry x="10" y="1150" width="200" height="120" as="geometry"/>
        </mxCell>
        <mxCell id="q6k-28" value="group" style="whiteSpace=wrap;html=1;shadow=1;fillColor=#ffe6cc;strokeColor=#d79b00;fontColor=#333333;fontSize=20;verticalAlign=top" vertex="1" parent="node_root_q6k">
          <mxGeometry x="225" y="1105" width="210" height="210" as="geometry"/>
        </mxCell>
        <mxCell id="q6k-29" value="hexagon" style="whiteSpace=wrap;html=1;shadow=1;fillColor=#ffe6cc;strokeColor=#d79b00;fontColor=#333333;shape=hexagon" vertex="1" parent="node_root_q6k">
          <mxGeometry x="450" y="1150" width="200" height="120" as="geometry"/>
        </mxCell>
        <mxCell id="q6k-30" value="interface" style="whiteSpace=wrap;html=1;shadow=1;fillColor=#ffe6cc;strokeColor=#d79b00;fontColor=#333333;align=left;overflow=fill;fontSize=12;fontFamily=Helvetica" vertex="1" parent="node_root_q6k">
          <mxGeometry x="690" y="1130" width="160" height="160" as="geometry"/>
        </mxCell>
        <mxCell id="q6k-31" value="klass" style="whiteSpace=wrap;html=1;shadow=1;fillColor=#ffe6cc;strokeColor=#d79b00;fontColor=#333333;align=left;overflow=fill;fontSize=12;fontFamily=Helvetica" vertex="1" parent="node_root_q6k">
          <mxGeometry x="910" y="1130" width="160" height="160" as="geometry"/>
        </mxCell>
        <mxCell id="q6k-32" value="note" style="whiteSpace=wrap;html=1;shadow=1;fillColor=#ffe6cc;strokeColor=#d79b00;fontColor=#333333;shape=note" vertex="1" parent="node_root_q6k">
          <mxGeometry x="30" y="1350" width="160" height="160" as="geometry"/>
        </mxCell>
        <mxCell id="q6k-33" value="process" style="whiteSpace=wrap;html=1;shadow=1;fillColor=#ffe6cc;strokeColor=#d79b00;fontColor=#333333;shape=process" vertex="1" parent="node_root_q6k">
          <mxGeometry x="230" y="1370" width="200" height="120" as="geometry"/>
        </mxCell>
        <mxCell id="q6k-34" value="rectangle" style="whiteSpace=wrap;html=1;shadow=1;fillColor=#ffe6cc;strokeColor=#d79b00;fontColor=#333333" vertex="1" parent="node_root_q6k">
          <mxGeometry x="450" y="1370" width="200" height="120" as="geometry"/>
        </mxCell>
        <mxCell id="q6k-35" value="rectangle2" style="whiteSpace=wrap;html=1;shadow=1;fillColor=#ffe6cc;strokeColor=#d79b00;fontColor=#333333;shape=mxgraph.basic.cloud_rect" vertex="1" parent="node_root_q6k">
          <mxGeometry x="670" y="1370" width="200" height="120" as="geometry"/>
        </mxCell>
        <mxCell id="q6k-36" value="square" style="whiteSpace=wrap;html=1;shadow=1;fillColor=#ffe6cc;strokeColor=#d79b00;fontColor=#333333" vertex="1" parent="node_root_q6k">
          <mxGeometry x="910" y="1350" width="160" height="160" as="geometry"/>
        </mxCell>
        <mxCell id="q6k-37" value="step" style="whiteSpace=wrap;html=1;shadow=1;fillColor=#ffe6cc;strokeColor=#d79b00;fontColor=#333333;shape=step;perimeter=stepPerimeter;fixedSize=1" vertex="1" parent="node_root_q6k">
          <mxGeometry x="50" y="1610" width="120" height="80" as="geometry"/>
        </mxCell>
        <mxCell id="q6k-38" value="tick" style="whiteSpace=wrap;html=1;shadow=1;fillColor=#ffe6cc;strokeColor=#d79b00;fontColor=#333333;verticalLabelPosition=bottom;verticalAlign=top;shape=mxgraph.basic.tick" vertex="1" parent="node_root_q6k">
          <mxGeometry x="305" y="1625" width="50" height="50" as="geometry"/>
        </mxCell>
        <mxCell id="q6k-39" value="todo" style="whiteSpace=wrap;html=1;shadow=1;fillColor=#ffe6cc;strokeColor=#d79b00;fontColor=#333333" vertex="1" parent="node_root_q6k">
          <mxGeometry x="400" y="1620" width="300" height="60" as="geometry"/>
        </mxCell>
        <mxCell id="q6k-40" value="face" style="whiteSpace=wrap;html=1;shadow=1;fillColor=#ffe6cc;strokeColor=#d79b00;fontColor=#333333;verticalLabelPosition=bottom;verticalAlign=top;shape=mxgraph.basic.smiley" vertex="1" parent="node_root_q6k">
          <mxGeometry x="720" y="1600" width="100" height="100" as="geometry"/>
        </mxCell>
        <mxCell id="q6k-41" value="triangle" style="whiteSpace=wrap;html=1;shadow=1;fillColor=#ffe6cc;strokeColor=#d79b00;fontColor=#333333;triangle" vertex="1" parent="node_root_q6k">
          <mxGeometry x="940" y="1600" width="100" height="100" as="geometry"/>
        </mxCell>
        <mxCell id="q6k-42" value="embed_row" style="whiteSpace=wrap;html=1;shadow=1;fillColor=#ffe6cc;strokeColor=#d79b00;fontColor=#333333;shape=partialRectangle;collapsible=0;dropTarget=0;pointerEvents=0;top=0;left=0;bottom=1;right=0;points=[[0,0.5],[1,0.5]];portConstraint=eastwest" vertex="1" parent="node_root_q6k">
          <mxGeometry x="10" y="1850" width="200" height="40" as="geometry"/>
        </mxCell>
        <mxCell id="q6k-43" value="embed_col50" style="whiteSpace=wrap;html=1;shadow=1;fillColor=#ffe6cc;strokeColor=#d79b00;fontColor=#333333;shape=partialRectangle;connectable=0;top=0;left=0;bottom=0;right=0;fontStyle=1;overflow=hidden" vertex="1" parent="node_root_q6k">
          <mxGeometry x="305" y="1850" width="50" height="40" as="geometry"/>
        </mxCell>
        <mxCell id="q6k-44" value="embed_col200" style="whiteSpace=wrap;html=1;shadow=1;fillColor=#ffe6cc;strokeColor=#d79b00;fontColor=#333333;shape=partialRectangle;connectable=0;top=0;left=0;bottom=0;right=0;align=left;spacingLeft=6;overflow=hidden" vertex="1" parent="node_root_q6k">
          <mxGeometry x="475" y="1850" width="150" height="40" as="geometry"/>
        </mxCell>
      </root>
    </mxGraphModel>
  </diagram>
  <diagram id="l2O" name="Style-Rounded">
    <mxGraphModel dx="0" dy="0" background="#FAFAFA" grid="0" gridSize="10" guides="1" tooltips="1" connect="1" arrows="1" fold="1" page="1" pageScale="1" pageWidth="1169" pageHeight="827" math="0" shadow="0">
      <root>
        <mxCell id="page_root_l2O" parent="l2O"/>
        <mxCell id="node_root_l2O" parent="page_root_l2O"/>
        <mxCell id="l2O-2" value="h1" style="whiteSpace=wrap;html=1;rounded=1;fontColor=#1F2D3D;text;fontSize=89;fontStyle=1;fillColor=none" vertex="1" parent="node_root_l2O">
          <mxGeometry x="60" y="85" width="100" height="50" as="geometry"/>
        </mxCell>
        <mxCell id="l2O-3" value="h2" style="whiteSpace=wrap;html=1;rounded=1;fontColor=#1F2D3D;text;fontSize=67;fontStyle=1;fillColor=none" vertex="1" parent="node_root_l2O">
          <mxGeometry x="280" y="85" width="100" height="50" as="geometry"/>
        </mxCell>
        <mxCell id="l2O-4" value="h3" style="whiteSpace=wrap;html=1;rounded=1;fontColor=#1F2D3D;text;fontSize=50;fontStyle=1;fillColor=none" vertex="1" parent="node_root_l2O">
          <mxGeometry x="500" y="85" width="100" height="50" as="geometry"/>
        </mxCell>
        <mxCell id="l2O-5" value="h4" style="whiteSpace=wrap;html=1;rounded=1;fontColor=#1F2D3D;text;fontSize=37;fontStyle=1;fillColor=none" vertex="1" parent="node_root_l2O">
          <mxGeometry x="720" y="85" width="100" height="50" as="geometry"/>
        </mxCell>
        <mxCell id="l2O-6" value="h5" style="whiteSpace=wrap;html=1;rounded=1;fontColor=#1F2D3D;text;fontSize=28;fontStyle=1;fillColor=none" vertex="1" parent="node_root_l2O">
          <mxGeometry x="940" y="85" width="100" height="50" as="geometry"/>
        </mxCell>
        <mxCell id="l2O-7" value="h6" style="whiteSpace=wrap;html=1;rounded=1;fontColor=#1F2D3D;text;fontSize=21;fontStyle=1;fillColor=none" vertex="1" parent="node_root_l2O">
          <mxGeometry x="60" y="305" width="100" height="50" as="geometry"/>
        </mxCell>
        <mxCell id="l2O-8" value="p" style="whiteSpace=wrap;html=1;rounded=1;fontColor=#1F2D3D;text;fontSize=16;fontStyle=1;fillColor=none" vertex="1" parent="node_root_l2O">
          <mxGeometry x="280" y="305" width="100" height="50" as="geometry"/>
        </mxCell>
        <mxCell id="l2O-9" value="actor" style="whiteSpace=wrap;html=1;rounded=1;fillColor=#ffe6cc;strokeColor=#d79b00;fontColor=#333333;shape=actor" vertex="1" parent="node_root_l2O">
          <mxGeometry x="530" y="305" width="40" height="50" as="geometry"/>
        </mxCell>
        <mxCell id="l2O-10" value="actor2" style="whiteSpace=wrap;html=1;rounded=1;fillColor=#ffe6cc;strokeColor=#d79b00;fontColor=#333333;shape=umlActor;verticalLabelPosition=bottom;outlineConnect=1" vertex="1" parent="node_root_l2O">
          <mxGeometry x="755" y="305" width="30" height="50" as="geometry"/>
        </mxCell>
        <mxCell id="l2O-11" value="callout" style="whiteSpace=wrap;html=1;rounded=1;fillColor=#ffe6cc;strokeColor=#d79b00;fontColor=#333333;shape=callout" vertex="1" parent="node_root_l2O">
          <mxGeometry x="910" y="270" width="160" height="120" as="geometry"/>
        </mxCell>
        <mxCell id="l2O-12" value="callout2" style="whiteSpace=wrap;html=1;rounded=1;fillColor=#ffe6cc;strokeColor=#d79b00;fontColor=#333333;shape=mxgraph.basic.oval_callout" vertex="1" parent="node_root_l2O">
          <mxGeometry x="30" y="470" width="160" height="160" as="geometry"/>
        </mxCell>
        <mxCell id="l2O-13" value="callout3" style="whiteSpace=wrap;html=1;rounded=1;fillColor=#ffe6cc;strokeColor=#d79b00;fontColor=#333333;shape=mxgraph.basic.cloud_callout" vertex="1" parent="node_root_l2O">
          <mxGeometry x="250" y="470" width="160" height="160" as="geometry"/>
        </mxCell>
        <mxCell id="l2O-14" value="callout4" style="whiteSpace=wrap;html=1;rounded=1;fillColor=#ffe6cc;strokeColor=#d79b00;fontColor=#333333;shape=mxgraph.basic.roundRectCallout;dx=30;dy=15;size=5;boundedLbl=1" vertex="1" parent="node_root_l2O">
          <mxGeometry x="470" y="490" width="160" height="120" as="geometry"/>
        </mxCell>
        <mxCell id="l2O-15" value="circle" style="whiteSpace=wrap;html=1;rounded=1;fillColor=#ffe6cc;strokeColor=#d79b00;fontColor=#333333;ellipse" vertex="1" parent="node_root_l2O">
          <mxGeometry x="690" y="470" width="160" height="160" as="geometry"/>
        </mxCell>
        <mxCell id="l2O-16" value="cloud" style="whiteSpace=wrap;html=1;rounded=1;fillColor=#ffe6cc;strokeColor=#d79b00;fontColor=#333333;shape=cloud" vertex="1" parent="node_root_l2O">
          <mxGeometry x="910" y="470" width="160" height="160" as="geometry"/>
        </mxCell>
        <mxCell id="l2O-17" value="container" style="whiteSpace=wrap;html=1;rounded=1;fillColor=#ffe6cc;strokeColor=#d79b00;fontColor=#333333;swimlane" vertex="1" parent="node_root_l2O">
          <mxGeometry x="30" y="690" width="160" height="160" as="geometry"/>
        </mxCell>
        <mxCell id="l2O-18" value="container2" style="whiteSpace=wrap;html=1;rounded=1;fillColor=#ffe6cc;strokeColor=#d79b00;fontColor=#333333;swimlane;horizontal=0" vertex="1" parent="node_root_l2O">
          <mxGeometry x="250" y="690" width="160" height="160" as="geometry"/>
        </mxCell>
        <mxCell id="l2O-19" value="container3" style="whiteSpace=wrap;html=1;rounded=1;fillColor=#ffe6cc;strokeColor=#d79b00;fontColor=#333333;swimlane;startSize=50" vertex="1" parent="node_root_l2O">
          <mxGeometry x="470" y="690" width="160" height="160" as="geometry"/>
        </mxCell>
        <mxCell id="l2O-20" value="container4" style="whiteSpace=wrap;html=1;rounded=1;fillColor=#ffe6cc;strokeColor=#d79b00;fontColor=#333333;swimlane;resizable=0" vertex="1" parent="node_root_l2O">
          <mxGeometry x="690" y="690" width="160" height="160" as="geometry"/>
        </mxCell>
        <mxCell id="l2O-21" value="cross" style="whiteSpace=wrap;html=1;rounded=1;fillColor=#ffe6cc;strokeColor=#d79b00;fontColor=#333333;verticalLabelPosition=bottom;verticalAlign=top;shape=mxgraph.basic.x" vertex="1" parent="node_root_l2O">
          <mxGeometry x="965" y="745" width="50" height="50" as="geometry"/>
        </mxCell>
        <mxCell id="l2O-22" value="envelop" style="whiteSpace=wrap;html=1;rounded=1;fillColor=#ffe6cc;strokeColor=#d79b00;fontColor=#333333;shape=message" vertex="1" parent="node_root_l2O">
          <mxGeometry x="30" y="940" width="160" height="100" as="geometry"/>
        </mxCell>
        <mxCell id="l2O-23" value="database" style="whiteSpace=wrap;html=1;rounded=1;fillColor=#ffe6cc;strokeColor=#d79b00;fontColor=#333333;shape=mxgraph.flowchart.database;strokeWidth=1" vertex="1" parent="node_root_l2O">
          <mxGeometry x="250" y="950" width="160" height="80" as="geometry"/>
        </mxCell>
        <mxCell id="l2O-24" value="db_json" style="whiteSpace=wrap;html=1;rounded=1;fillColor=#ffe6cc;strokeColor=#d79b00;fontColor=#333333;shape=mxgraph.flowchart.database;strokeWidth=1" vertex="1" parent="node_root_l2O">
          <mxGeometry x="470" y="970" width="160" height="40" as="geometry"/>
        </mxCell>
        <mxCell id="l2O-25" value="diamond" style="whiteSpace=wrap;html=1;rounded=1;fillColor=#ffe6cc;strokeColor=#d79b00;fontColor=#333333;rhombus" vertex="1" parent="node_root_l2O">
          <mxGeometry x="720" y="940" width="100" height="100" as="geometry"/>
        </mxCell>
        <mxCell id="l2O-26" value="document" style="whiteSpace=wrap;html=1;rounded=1;fillColor=#ffe6cc;strokeColor=#d79b00;fontColor=#333333;shape=mxgraph.basic.document" vertex="1" parent="node_root_l2O">
          <mxGeometry x="910" y="910" width="160" height="160" as="geometry"/>
        </mxCell>
        <mxCell id="l2O-27" value="ellipse" style="whiteSpace=wrap;html=1;rounded=1;fillColor=#ffe6cc;strokeColor=#d79b00;fontColor=#333333;ellipse" vertex="1" parent="node_root_l2O">
          <mxGeometry x="10" y="1150" width="200" height="120" as="geometry"/>
        </mxCell>
        <mxCell id="l2O-28" value="group" style="whiteSpace=wrap;html=1;rounded=1;fillColor=#ffe6cc;strokeColor=#d79b00;fontColor=#333333;fontSize=20;verticalAlign=top" vertex="1" parent="node_root_l2O">
          <mxGeometry x="225" y="1105" width="210" height="210" as="geometry"/>
        </mxCell>
        <mxCell id="l2O-29" value="hexagon" style="whiteSpace=wrap;html=1;rounded=1;fillColor=#ffe6cc;strokeColor=#d79b00;fontColor=#333333;shape=hexagon" vertex="1" parent="node_root_l2O">
          <mxGeometry x="450" y="1150" width="200" height="120" as="geometry"/>
        </mxCell>
        <mxCell id="l2O-30" value="interface" style="whiteSpace=wrap;html=1;rounded=1;fillColor=#ffe6cc;strokeColor=#d79b00;fontColor=#333333;align=left;overflow=fill;fontSize=12;fontFamily=Helvetica" vertex="1" parent="node_root_l2O">
          <mxGeometry x="690" y="1130" width="160" height="160" as="geometry"/>
        </mxCell>
        <mxCell id="l2O-31" value="klass" style="whiteSpace=wrap;html=1;rounded=1;fillColor=#ffe6cc;strokeColor=#d79b00;fontColor=#333333;align=left;overflow=fill;fontSize=12;fontFamily=Helvetica" vertex="1" parent="node_root_l2O">
          <mxGeometry x="910" y="1130" width="160" height="160" as="geometry"/>
        </mxCell>
        <mxCell id="l2O-32" value="note" style="whiteSpace=wrap;html=1;rounded=1;fillColor=#ffe6cc;strokeColor=#d79b00;fontColor=#333333;shape=note" vertex="1" parent="node_root_l2O">
          <mxGeometry x="30" y="1350" width="160" height="160" as="geometry"/>
        </mxCell>
        <mxCell id="l2O-33" value="process" style="whiteSpace=wrap;html=1;rounded=1;fillColor=#ffe6cc;strokeColor=#d79b00;fontColor=#333333;shape=process" vertex="1" parent="node_root_l2O">
          <mxGeometry x="230" y="1370" width="200" height="120" as="geometry"/>
        </mxCell>
        <mxCell id="l2O-34" value="rectangle" style="whiteSpace=wrap;html=1;rounded=1;fillColor=#ffe6cc;strokeColor=#d79b00;fontColor=#333333" vertex="1" parent="node_root_l2O">
          <mxGeometry x="450" y="1370" width="200" height="120" as="geometry"/>
        </mxCell>
        <mxCell id="l2O-35" value="rectangle2" style="whiteSpace=wrap;html=1;rounded=1;fillColor=#ffe6cc;strokeColor=#d79b00;fontColor=#333333;shape=mxgraph.basic.cloud_rect" vertex="1" parent="node_root_l2O">
          <mxGeometry x="670" y="1370" width="200" height="120" as="geometry"/>
        </mxCell>
        <mxCell id="l2O-36" value="square" style="whiteSpace=wrap;html=1;rounded=1;fillColor=#ffe6cc;strokeColor=#d79b00;fontColor=#333333" vertex="1" parent="node_root_l2O">
          <mxGeometry x="910" y="1350" width="160" height="160" as="geometry"/>
        </mxCell>
        <mxCell id="l2O-37" value="step" style="whiteSpace=wrap;html=1;rounded=1;fillColor=#ffe6cc;strokeColor=#d79b00;fontColor=#333333;shape=step;perimeter=stepPerimeter;fixedSize=1" vertex="1" parent="node_root_l2O">
          <mxGeometry x="50" y="1610" width="120" height="80" as="geometry"/>
        </mxCell>
        <mxCell id="l2O-38" value="tick" style="whiteSpace=wrap;html=1;rounded=1;fillColor=#ffe6cc;strokeColor=#d79b00;fontColor=#333333;verticalLabelPosition=bottom;verticalAlign=top;shape=mxgraph.basic.tick" vertex="1" parent="node_root_l2O">
          <mxGeometry x="305" y="1625" width="50" height="50" as="geometry"/>
        </mxCell>
        <mxCell id="l2O-39" value="todo" style="whiteSpace=wrap;html=1;rounded=1;fillColor=#ffe6cc;strokeColor=#d79b00;fontColor=#333333" vertex="1" parent="node_root_l2O">
          <mxGeometry x="400" y="1620" width="300" height="60" as="geometry"/>
        </mxCell>
        <mxCell id="l2O-40" value="face" style="whiteSpace=wrap;html=1;rounded=1;fillColor=#ffe6cc;strokeColor=#d79b00;fontColor=#333333;verticalLabelPosition=bottom;verticalAlign=top;shape=mxgraph.basic.smiley" vertex="1" parent="node_root_l2O">
          <mxGeometry x="720" y="1600" width="100" height="100" as="geometry"/>
        </mxCell>
        <mxCell id="l2O-41" value="triangle" style="whiteSpace=wrap;html=1;rounded=1;fillColor=#ffe6cc;strokeColor=#d79b00;fontColor=#333333;triangle" vertex="1" parent="node_root_l2O">
          <mxGeometry x="940" y="1600" width="100" height="100" as="geometry"/>
        </mxCell>
        <mxCell id="l2O-42" value="embed_row" style="whiteSpace=wrap;html=1;rounded=1;fillColor=#ffe6cc;strokeColor=#d79b00;fontColor=#333333;shape=partialRectangle;collapsible=0;dropTarget=0;pointerEvents=0;top=0;left=0;bottom=1;right=0;points=[[0,0.5],[1,0.5]];portConstraint=eastwest" vertex="1" parent="node_root_l2O">
          <mxGeometry x="10" y="1850" width="200" height="40" as="geometry"/>
        </mxCell>
        <mxCell id="l2O-43" value="embed_col50" style="whiteSpace=wrap;html=1;rounded=1;fillColor=#ffe6cc;strokeColor=#d79b00;fontColor=#333333;shape=partialRectangle;connectable=0;top=0;left=0;bottom=0;right=0;fontStyle=1;overflow=hidden" vertex="1" parent="node_root_l2O">
          <mxGeometry x="305" y="1850" width="50" height="40" as="geometry"/>
        </mxCell>
        <mxCell id="l2O-44" value="embed_col200" style="whiteSpace=wrap;html=1;rounded=1;fillColor=#ffe6cc;strokeColor=#d79b00;fontColor=#333333;shape=partialRectangle;connectable=0;top=0;left=0;bottom=0;right=0;align=left;spacingLeft=6;overflow=hidden" vertex="1" parent="node_root_l2O">
          <mxGeometry x="475" y="1850" width="150" height="40" as="geometry"/>
        </mxCell>
      </root>
    </mxGraphModel>
  </diagram>
  <diagram id="9Tv" name="Style-Glass">
    <mxGraphModel dx="0" dy="0" background="#FAFAFA" grid="0" gridSize="10" guides="1" tooltips="1" connect="1" arrows="1" fold="1" page="1" pageScale="1" pageWidth="1169" pageHeight="827" math="0" shadow="0">
      <root>
        <mxCell id="page_root_9Tv" parent="9Tv"/>
        <mxCell id="node_root_9Tv" parent="page_root_9Tv"/>
        <mxCell id="9Tv-2" value="h1" style="whiteSpace=wrap;html=1;glass=1;fontColor=#1F2D3D;text;fontSize=89;fontStyle=1;fillColor=none" vertex="1" parent="node_root_9Tv">
          <mxGeometry x="60" y="85" width="100" height="50" as="geometry"/>
        </mxCell>
        <mxCell id="9Tv-3" value="h2" style="whiteSpace=wrap;html=1;glass=1;fontColor=#1F2D3D;text;fontSize=67;fontStyle=1;fillColor=none" vertex="1" parent="node_root_9Tv">
          <mxGeometry x="280" y="85" width="100" height="50" as="geometry"/>
        </mxCell>
        <mxCell id="9Tv-4" value="h3" style="whiteSpace=wrap;html=1;glass=1;fontColor=#1F2D3D;text;fontSize=50;fontStyle=1;fillColor=none" vertex="1" parent="node_root_9Tv">
          <mxGeometry x="500" y="85" width="100" height="50" as="geometry"/>
        </mxCell>
        <mxCell id="9Tv-5" value="h4" style="whiteSpace=wrap;html=1;glass=1;fontColor=#1F2D3D;text;fontSize=37;fontStyle=1;fillColor=none" vertex="1" parent="node_root_9Tv">
          <mxGeometry x="720" y="85" width="100" height="50" as="geometry"/>
        </mxCell>
        <mxCell id="9Tv-6" value="h5" style="whiteSpace=wrap;html=1;glass=1;fontColor=#1F2D3D;text;fontSize=28;fontStyle=1;fillColor=none" vertex="1" parent="node_root_9Tv">
          <mxGeometry x="940" y="85" width="100" height="50" as="geometry"/>
        </mxCell>
        <mxCell id="9Tv-7" value="h6" style="whiteSpace=wrap;html=1;glass=1;fontColor=#1F2D3D;text;fontSize=21;fontStyle=1;fillColor=none" vertex="1" parent="node_root_9Tv">
          <mxGeometry x="60" y="305" width="100" height="50" as="geometry"/>
        </mxCell>
        <mxCell id="9Tv-8" value="p" style="whiteSpace=wrap;html=1;glass=1;fontColor=#1F2D3D;text;fontSize=16;fontStyle=1;fillColor=none" vertex="1" parent="node_root_9Tv">
          <mxGeometry x="280" y="305" width="100" height="50" as="geometry"/>
        </mxCell>
        <mxCell id="9Tv-9" value="actor" style="whiteSpace=wrap;html=1;glass=1;fillColor=#ffe6cc;strokeColor=#d79b00;fontColor=#333333;shape=actor" vertex="1" parent="node_root_9Tv">
          <mxGeometry x="530" y="305" width="40" height="50" as="geometry"/>
        </mxCell>
        <mxCell id="9Tv-10" value="actor2" style="whiteSpace=wrap;html=1;glass=1;fillColor=#ffe6cc;strokeColor=#d79b00;fontColor=#333333;shape=umlActor;verticalLabelPosition=bottom;outlineConnect=1" vertex="1" parent="node_root_9Tv">
          <mxGeometry x="755" y="305" width="30" height="50" as="geometry"/>
        </mxCell>
        <mxCell id="9Tv-11" value="callout" style="whiteSpace=wrap;html=1;glass=1;fillColor=#ffe6cc;strokeColor=#d79b00;fontColor=#333333;shape=callout" vertex="1" parent="node_root_9Tv">
          <mxGeometry x="910" y="270" width="160" height="120" as="geometry"/>
        </mxCell>
        <mxCell id="9Tv-12" value="callout2" style="whiteSpace=wrap;html=1;glass=1;fillColor=#ffe6cc;strokeColor=#d79b00;fontColor=#333333;shape=mxgraph.basic.oval_callout" vertex="1" parent="node_root_9Tv">
          <mxGeometry x="30" y="470" width="160" height="160" as="geometry"/>
        </mxCell>
        <mxCell id="9Tv-13" value="callout3" style="whiteSpace=wrap;html=1;glass=1;fillColor=#ffe6cc;strokeColor=#d79b00;fontColor=#333333;shape=mxgraph.basic.cloud_callout" vertex="1" parent="node_root_9Tv">
          <mxGeometry x="250" y="470" width="160" height="160" as="geometry"/>
        </mxCell>
        <mxCell id="9Tv-14" value="callout4" style="whiteSpace=wrap;html=1;glass=1;fillColor=#ffe6cc;strokeColor=#d79b00;fontColor=#333333;shape=mxgraph.basic.roundRectCallout;dx=30;dy=15;size=5;boundedLbl=1" vertex="1" parent="node_root_9Tv">
          <mxGeometry x="470" y="490" width="160" height="120" as="geometry"/>
        </mxCell>
        <mxCell id="9Tv-15" value="circle" style="whiteSpace=wrap;html=1;glass=1;fillColor=#ffe6cc;strokeColor=#d79b00;fontColor=#333333;ellipse" vertex="1" parent="node_root_9Tv">
          <mxGeometry x="690" y="470" width="160" height="160" as="geometry"/>
        </mxCell>
        <mxCell id="9Tv-16" value="cloud" style="whiteSpace=wrap;html=1;glass=1;fillColor=#ffe6cc;strokeColor=#d79b00;fontColor=#333333;shape=cloud" vertex="1" parent="node_root_9Tv">
          <mxGeometry x="910" y="470" width="160" height="160" as="geometry"/>
        </mxCell>
        <mxCell id="9Tv-17" value="container" style="whiteSpace=wrap;html=1;glass=1;fillColor=#ffe6cc;strokeColor=#d79b00;fontColor=#333333;swimlane" vertex="1" parent="node_root_9Tv">
          <mxGeometry x="30" y="690" width="160" height="160" as="geometry"/>
        </mxCell>
        <mxCell id="9Tv-18" value="container2" style="whiteSpace=wrap;html=1;glass=1;fillColor=#ffe6cc;strokeColor=#d79b00;fontColor=#333333;swimlane;horizontal=0" vertex="1" parent="node_root_9Tv">
          <mxGeometry x="250" y="690" width="160" height="160" as="geometry"/>
        </mxCell>
        <mxCell id="9Tv-19" value="container3" style="whiteSpace=wrap;html=1;glass=1;fillColor=#ffe6cc;strokeColor=#d79b00;fontColor=#333333;swimlane;startSize=50" vertex="1" parent="node_root_9Tv">
          <mxGeometry x="470" y="690" width="160" height="160" as="geometry"/>
        </mxCell>
        <mxCell id="9Tv-20" value="container4" style="whiteSpace=wrap;html=1;glass=1;fillColor=#ffe6cc;strokeColor=#d79b00;fontColor=#333333;swimlane;resizable=0" vertex="1" parent="node_root_9Tv">
          <mxGeometry x="690" y="690" width="160" height="160" as="geometry"/>
        </mxCell>
        <mxCell id="9Tv-21" value="cross" style="whiteSpace=wrap;html=1;glass=1;fillColor=#ffe6cc;strokeColor=#d79b00;fontColor=#333333;verticalLabelPosition=bottom;verticalAlign=top;shape=mxgraph.basic.x" vertex="1" parent="node_root_9Tv">
          <mxGeometry x="965" y="745" width="50" height="50" as="geometry"/>
        </mxCell>
        <mxCell id="9Tv-22" value="envelop" style="whiteSpace=wrap;html=1;glass=1;fillColor=#ffe6cc;strokeColor=#d79b00;fontColor=#333333;shape=message" vertex="1" parent="node_root_9Tv">
          <mxGeometry x="30" y="940" width="160" height="100" as="geometry"/>
        </mxCell>
        <mxCell id="9Tv-23" value="database" style="whiteSpace=wrap;html=1;glass=1;fillColor=#ffe6cc;strokeColor=#d79b00;fontColor=#333333;shape=mxgraph.flowchart.database;strokeWidth=1" vertex="1" parent="node_root_9Tv">
          <mxGeometry x="250" y="950" width="160" height="80" as="geometry"/>
        </mxCell>
        <mxCell id="9Tv-24" value="db_json" style="whiteSpace=wrap;html=1;glass=1;fillColor=#ffe6cc;strokeColor=#d79b00;fontColor=#333333;shape=mxgraph.flowchart.database;strokeWidth=1" vertex="1" parent="node_root_9Tv">
          <mxGeometry x="470" y="970" width="160" height="40" as="geometry"/>
        </mxCell>
        <mxCell id="9Tv-25" value="diamond" style="whiteSpace=wrap;html=1;glass=1;fillColor=#ffe6cc;strokeColor=#d79b00;fontColor=#333333;rhombus" vertex="1" parent="node_root_9Tv">
          <mxGeometry x="720" y="940" width="100" height="100" as="geometry"/>
        </mxCell>
        <mxCell id="9Tv-26" value="document" style="whiteSpace=wrap;html=1;glass=1;fillColor=#ffe6cc;strokeColor=#d79b00;fontColor=#333333;shape=mxgraph.basic.document" vertex="1" parent="node_root_9Tv">
          <mxGeometry x="910" y="910" width="160" height="160" as="geometry"/>
        </mxCell>
        <mxCell id="9Tv-27" value="ellipse" style="whiteSpace=wrap;html=1;glass=1;fillColor=#ffe6cc;strokeColor=#d79b00;fontColor=#333333;ellipse" vertex="1" parent="node_root_9Tv">
          <mxGeometry x="10" y="1150" width="200" height="120" as="geometry"/>
        </mxCell>
        <mxCell id="9Tv-28" value="group" style="whiteSpace=wrap;html=1;glass=1;fillColor=#ffe6cc;strokeColor=#d79b00;fontColor=#333333;fontSize=20;verticalAlign=top" vertex="1" parent="node_root_9Tv">
          <mxGeometry x="225" y="1105" width="210" height="210" as="geometry"/>
        </mxCell>
        <mxCell id="9Tv-29" value="hexagon" style="whiteSpace=wrap;html=1;glass=1;fillColor=#ffe6cc;strokeColor=#d79b00;fontColor=#333333;shape=hexagon" vertex="1" parent="node_root_9Tv">
          <mxGeometry x="450" y="1150" width="200" height="120" as="geometry"/>
        </mxCell>
        <mxCell id="9Tv-30" value="interface" style="whiteSpace=wrap;html=1;glass=1;fillColor=#ffe6cc;strokeColor=#d79b00;fontColor=#333333;align=left;overflow=fill;fontSize=12;fontFamily=Helvetica" vertex="1" parent="node_root_9Tv">
          <mxGeometry x="690" y="1130" width="160" height="160" as="geometry"/>
        </mxCell>
        <mxCell id="9Tv-31" value="klass" style="whiteSpace=wrap;html=1;glass=1;fillColor=#ffe6cc;strokeColor=#d79b00;fontColor=#333333;align=left;overflow=fill;fontSize=12;fontFamily=Helvetica" vertex="1" parent="node_root_9Tv">
          <mxGeometry x="910" y="1130" width="160" height="160" as="geometry"/>
        </mxCell>
        <mxCell id="9Tv-32" value="note" style="whiteSpace=wrap;html=1;glass=1;fillColor=#ffe6cc;strokeColor=#d79b00;fontColor=#333333;shape=note" vertex="1" parent="node_root_9Tv">
          <mxGeometry x="30" y="1350" width="160" height="160" as="geometry"/>
        </mxCell>
        <mxCell id="9Tv-33" value="process" style="whiteSpace=wrap;html=1;glass=1;fillColor=#ffe6cc;strokeColor=#d79b00;fontColor=#333333;shape=process" vertex="1" parent="node_root_9Tv">
          <mxGeometry x="230" y="1370" width="200" height="120" as="geometry"/>
        </mxCell>
        <mxCell id="9Tv-34" value="rectangle" style="whiteSpace=wrap;html=1;glass=1;fillColor=#ffe6cc;strokeColor=#d79b00;fontColor=#333333" vertex="1" parent="node_root_9Tv">
          <mxGeometry x="450" y="1370" width="200" height="120" as="geometry"/>
        </mxCell>
        <mxCell id="9Tv-35" value="rectangle2" style="whiteSpace=wrap;html=1;glass=1;fillColor=#ffe6cc;strokeColor=#d79b00;fontColor=#333333;shape=mxgraph.basic.cloud_rect" vertex="1" parent="node_root_9Tv">
          <mxGeometry x="670" y="1370" width="200" height="120" as="geometry"/>
        </mxCell>
        <mxCell id="9Tv-36" value="square" style="whiteSpace=wrap;html=1;glass=1;fillColor=#ffe6cc;strokeColor=#d79b00;fontColor=#333333" vertex="1" parent="node_root_9Tv">
          <mxGeometry x="910" y="1350" width="160" height="160" as="geometry"/>
        </mxCell>
        <mxCell id="9Tv-37" value="step" style="whiteSpace=wrap;html=1;glass=1;fillColor=#ffe6cc;strokeColor=#d79b00;fontColor=#333333;shape=step;perimeter=stepPerimeter;fixedSize=1" vertex="1" parent="node_root_9Tv">
          <mxGeometry x="50" y="1610" width="120" height="80" as="geometry"/>
        </mxCell>
        <mxCell id="9Tv-38" value="tick" style="whiteSpace=wrap;html=1;glass=1;fillColor=#ffe6cc;strokeColor=#d79b00;fontColor=#333333;verticalLabelPosition=bottom;verticalAlign=top;shape=mxgraph.basic.tick" vertex="1" parent="node_root_9Tv">
          <mxGeometry x="305" y="1625" width="50" height="50" as="geometry"/>
        </mxCell>
        <mxCell id="9Tv-39" value="todo" style="whiteSpace=wrap;html=1;glass=1;fillColor=#ffe6cc;strokeColor=#d79b00;fontColor=#333333" vertex="1" parent="node_root_9Tv">
          <mxGeometry x="400" y="1620" width="300" height="60" as="geometry"/>
        </mxCell>
        <mxCell id="9Tv-40" value="face" style="whiteSpace=wrap;html=1;glass=1;fillColor=#ffe6cc;strokeColor=#d79b00;fontColor=#333333;verticalLabelPosition=bottom;verticalAlign=top;shape=mxgraph.basic.smiley" vertex="1" parent="node_root_9Tv">
          <mxGeometry x="720" y="1600" width="100" height="100" as="geometry"/>
        </mxCell>
        <mxCell id="9Tv-41" value="triangle" style="whiteSpace=wrap;html=1;glass=1;fillColor=#ffe6cc;strokeColor=#d79b00;fontColor=#333333;triangle" vertex="1" parent="node_root_9Tv">
          <mxGeometry x="940" y="1600" width="100" height="100" as="geometry"/>
        </mxCell>
        <mxCell id="9Tv-42" value="embed_row" style="whiteSpace=wrap;html=1;glass=1;fillColor=#ffe6cc;strokeColor=#d79b00;fontColor=#333333;shape=partialRectangle;collapsible=0;dropTarget=0;pointerEvents=0;top=0;left=0;bottom=1;right=0;points=[[0,0.5],[1,0.5]];portConstraint=eastwest" vertex="1" parent="node_root_9Tv">
          <mxGeometry x="10" y="1850" width="200" height="40" as="geometry"/>
        </mxCell>
        <mxCell id="9Tv-43" value="embed_col50" style="whiteSpace=wrap;html=1;glass=1;fillColor=#ffe6cc;strokeColor=#d79b00;fontColor=#333333;shape=partialRectangle;connectable=0;top=0;left=0;bottom=0;right=0;fontStyle=1;overflow=hidden" vertex="1" parent="node_root_9Tv">
          <mxGeometry x="305" y="1850" width="50" height="40" as="geometry"/>
        </mxCell>
        <mxCell id="9Tv-44" value="embed_col200" style="whiteSpace=wrap;html=1;glass=1;fillColor=#ffe6cc;strokeColor=#d79b00;fontColor=#333333;shape=partialRectangle;connectable=0;top=0;left=0;bottom=0;right=0;align=left;spacingLeft=6;overflow=hidden" vertex="1" parent="node_root_9Tv">
          <mxGeometry x="475" y="1850" width="150" height="40" as="geometry"/>
        </mxCell>
      </root>
    </mxGraphModel>
  </diagram>
  <diagram id="gSz" name="Style-Sketch">
    <mxGraphModel dx="0" dy="0" background="#FAFAFA" grid="0" gridSize="10" guides="1" tooltips="1" connect="1" arrows="1" fold="1" page="1" pageScale="1" pageWidth="1169" pageHeight="827" math="0" shadow="0">
      <root>
        <mxCell id="page_root_gSz" parent="gSz"/>
        <mxCell id="node_root_gSz" parent="page_root_gSz"/>
        <mxCell id="gSz-2" value="h1" style="whiteSpace=wrap;html=1;sketch=1;fontColor=#1F2D3D;text;fontSize=89;fontStyle=1;fillColor=none" vertex="1" parent="node_root_gSz">
          <mxGeometry x="60" y="85" width="100" height="50" as="geometry"/>
        </mxCell>
        <mxCell id="gSz-3" value="h2" style="whiteSpace=wrap;html=1;sketch=1;fontColor=#1F2D3D;text;fontSize=67;fontStyle=1;fillColor=none" vertex="1" parent="node_root_gSz">
          <mxGeometry x="280" y="85" width="100" height="50" as="geometry"/>
        </mxCell>
        <mxCell id="gSz-4" value="h3" style="whiteSpace=wrap;html=1;sketch=1;fontColor=#1F2D3D;text;fontSize=50;fontStyle=1;fillColor=none" vertex="1" parent="node_root_gSz">
          <mxGeometry x="500" y="85" width="100" height="50" as="geometry"/>
        </mxCell>
        <mxCell id="gSz-5" value="h4" style="whiteSpace=wrap;html=1;sketch=1;fontColor=#1F2D3D;text;fontSize=37;fontStyle=1;fillColor=none" vertex="1" parent="node_root_gSz">
          <mxGeometry x="720" y="85" width="100" height="50" as="geometry"/>
        </mxCell>
        <mxCell id="gSz-6" value="h5" style="whiteSpace=wrap;html=1;sketch=1;fontColor=#1F2D3D;text;fontSize=28;fontStyle=1;fillColor=none" vertex="1" parent="node_root_gSz">
          <mxGeometry x="940" y="85" width="100" height="50" as="geometry"/>
        </mxCell>
        <mxCell id="gSz-7" value="h6" style="whiteSpace=wrap;html=1;sketch=1;fontColor=#1F2D3D;text;fontSize=21;fontStyle=1;fillColor=none" vertex="1" parent="node_root_gSz">
          <mxGeometry x="60" y="305" width="100" height="50" as="geometry"/>
        </mxCell>
        <mxCell id="gSz-8" value="p" style="whiteSpace=wrap;html=1;sketch=1;fontColor=#1F2D3D;text;fontSize=16;fontStyle=1;fillColor=none" vertex="1" parent="node_root_gSz">
          <mxGeometry x="280" y="305" width="100" height="50" as="geometry"/>
        </mxCell>
        <mxCell id="gSz-9" value="actor" style="whiteSpace=wrap;html=1;sketch=1;fillColor=#ffe6cc;strokeColor=#d79b00;fontColor=#333333;shape=actor" vertex="1" parent="node_root_gSz">
          <mxGeometry x="530" y="305" width="40" height="50" as="geometry"/>
        </mxCell>
        <mxCell id="gSz-10" value="actor2" style="whiteSpace=wrap;html=1;sketch=1;fillColor=#ffe6cc;strokeColor=#d79b00;fontColor=#333333;shape=umlActor;verticalLabelPosition=bottom;outlineConnect=1" vertex="1" parent="node_root_gSz">
          <mxGeometry x="755" y="305" width="30" height="50" as="geometry"/>
        </mxCell>
        <mxCell id="gSz-11" value="callout" style="whiteSpace=wrap;html=1;sketch=1;fillColor=#ffe6cc;strokeColor=#d79b00;fontColor=#333333;shape=callout" vertex="1" parent="node_root_gSz">
          <mxGeometry x="910" y="270" width="160" height="120" as="geometry"/>
        </mxCell>
        <mxCell id="gSz-12" value="callout2" style="whiteSpace=wrap;html=1;sketch=1;fillColor=#ffe6cc;strokeColor=#d79b00;fontColor=#333333;shape=mxgraph.basic.oval_callout" vertex="1" parent="node_root_gSz">
          <mxGeometry x="30" y="470" width="160" height="160" as="geometry"/>
        </mxCell>
        <mxCell id="gSz-13" value="callout3" style="whiteSpace=wrap;html=1;sketch=1;fillColor=#ffe6cc;strokeColor=#d79b00;fontColor=#333333;shape=mxgraph.basic.cloud_callout" vertex="1" parent="node_root_gSz">
          <mxGeometry x="250" y="470" width="160" height="160" as="geometry"/>
        </mxCell>
        <mxCell id="gSz-14" value="callout4" style="whiteSpace=wrap;html=1;sketch=1;fillColor=#ffe6cc;strokeColor=#d79b00;fontColor=#333333;shape=mxgraph.basic.roundRectCallout;dx=30;dy=15;size=5;boundedLbl=1" vertex="1" parent="node_root_gSz">
          <mxGeometry x="470" y="490" width="160" height="120" as="geometry"/>
        </mxCell>
        <mxCell id="gSz-15" value="circle" style="whiteSpace=wrap;html=1;sketch=1;fillColor=#ffe6cc;strokeColor=#d79b00;fontColor=#333333;ellipse" vertex="1" parent="node_root_gSz">
          <mxGeometry x="690" y="470" width="160" height="160" as="geometry"/>
        </mxCell>
        <mxCell id="gSz-16" value="cloud" style="whiteSpace=wrap;html=1;sketch=1;fillColor=#ffe6cc;strokeColor=#d79b00;fontColor=#333333;shape=cloud" vertex="1" parent="node_root_gSz">
          <mxGeometry x="910" y="470" width="160" height="160" as="geometry"/>
        </mxCell>
        <mxCell id="gSz-17" value="container" style="whiteSpace=wrap;html=1;sketch=1;fillColor=#ffe6cc;strokeColor=#d79b00;fontColor=#333333;swimlane" vertex="1" parent="node_root_gSz">
          <mxGeometry x="30" y="690" width="160" height="160" as="geometry"/>
        </mxCell>
        <mxCell id="gSz-18" value="container2" style="whiteSpace=wrap;html=1;sketch=1;fillColor=#ffe6cc;strokeColor=#d79b00;fontColor=#333333;swimlane;horizontal=0" vertex="1" parent="node_root_gSz">
          <mxGeometry x="250" y="690" width="160" height="160" as="geometry"/>
        </mxCell>
        <mxCell id="gSz-19" value="container3" style="whiteSpace=wrap;html=1;sketch=1;fillColor=#ffe6cc;strokeColor=#d79b00;fontColor=#333333;swimlane;startSize=50" vertex="1" parent="node_root_gSz">
          <mxGeometry x="470" y="690" width="160" height="160" as="geometry"/>
        </mxCell>
        <mxCell id="gSz-20" value="container4" style="whiteSpace=wrap;html=1;sketch=1;fillColor=#ffe6cc;strokeColor=#d79b00;fontColor=#333333;swimlane;resizable=0" vertex="1" parent="node_root_gSz">
          <mxGeometry x="690" y="690" width="160" height="160" as="geometry"/>
        </mxCell>
        <mxCell id="gSz-21" value="cross" style="whiteSpace=wrap;html=1;sketch=1;fillColor=#ffe6cc;strokeColor=#d79b00;fontColor=#333333;verticalLabelPosition=bottom;verticalAlign=top;shape=mxgraph.basic.x" vertex="1" parent="node_root_gSz">
          <mxGeometry x="965" y="745" width="50" height="50" as="geometry"/>
        </mxCell>
        <mxCell id="gSz-22" value="envelop" style="whiteSpace=wrap;html=1;sketch=1;fillColor=#ffe6cc;strokeColor=#d79b00;fontColor=#333333;shape=message" vertex="1" parent="node_root_gSz">
          <mxGeometry x="30" y="940" width="160" height="100" as="geometry"/>
        </mxCell>
        <mxCell id="gSz-23" value="database" style="whiteSpace=wrap;html=1;sketch=1;fillColor=#ffe6cc;strokeColor=#d79b00;fontColor=#333333;shape=mxgraph.flowchart.database;strokeWidth=1" vertex="1" parent="node_root_gSz">
          <mxGeometry x="250" y="950" width="160" height="80" as="geometry"/>
        </mxCell>
        <mxCell id="gSz-24" value="db_json" style="whiteSpace=wrap;html=1;sketch=1;fillColor=#ffe6cc;strokeColor=#d79b00;fontColor=#333333;shape=mxgraph.flowchart.database;strokeWidth=1" vertex="1" parent="node_root_gSz">
          <mxGeometry x="470" y="970" width="160" height="40" as="geometry"/>
        </mxCell>
        <mxCell id="gSz-25" value="diamond" style="whiteSpace=wrap;html=1;sketch=1;fillColor=#ffe6cc;strokeColor=#d79b00;fontColor=#333333;rhombus" vertex="1" parent="node_root_gSz">
          <mxGeometry x="720" y="940" width="100" height="100" as="geometry"/>
        </mxCell>
        <mxCell id="gSz-26" value="document" style="whiteSpace=wrap;html=1;sketch=1;fillColor=#ffe6cc;strokeColor=#d79b00;fontColor=#333333;shape=mxgraph.basic.document" vertex="1" parent="node_root_gSz">
          <mxGeometry x="910" y="910" width="160" height="160" as="geometry"/>
        </mxCell>
        <mxCell id="gSz-27" value="ellipse" style="whiteSpace=wrap;html=1;sketch=1;fillColor=#ffe6cc;strokeColor=#d79b00;fontColor=#333333;ellipse" vertex="1" parent="node_root_gSz">
          <mxGeometry x="10" y="1150" width="200" height="120" as="geometry"/>
        </mxCell>
        <mxCell id="gSz-28" value="group" style="whiteSpace=wrap;html=1;sketch=1;fillColor=#ffe6cc;strokeColor=#d79b00;fontColor=#333333;fontSize=20;verticalAlign=top" vertex="1" parent="node_root_gSz">
          <mxGeometry x="225" y="1105" width="210" height="210" as="geometry"/>
        </mxCell>
        <mxCell id="gSz-29" value="hexagon" style="whiteSpace=wrap;html=1;sketch=1;fillColor=#ffe6cc;strokeColor=#d79b00;fontColor=#333333;shape=hexagon" vertex="1" parent="node_root_gSz">
          <mxGeometry x="450" y="1150" width="200" height="120" as="geometry"/>
        </mxCell>
        <mxCell id="gSz-30" value="interface" style="whiteSpace=wrap;html=1;sketch=1;fillColor=#ffe6cc;strokeColor=#d79b00;fontColor=#333333;align=left;overflow=fill;fontSize=12;fontFamily=Helvetica" vertex="1" parent="node_root_gSz">
          <mxGeometry x="690" y="1130" width="160" height="160" as="geometry"/>
        </mxCell>
        <mxCell id="gSz-31" value="klass" style="whiteSpace=wrap;html=1;sketch=1;fillColor=#ffe6cc;strokeColor=#d79b00;fontColor=#333333;align=left;overflow=fill;fontSize=12;fontFamily=Helvetica" vertex="1" parent="node_root_gSz">
          <mxGeometry x="910" y="1130" width="160" height="160" as="geometry"/>
        </mxCell>
        <mxCell id="gSz-32" value="note" style="whiteSpace=wrap;html=1;sketch=1;fillColor=#ffe6cc;strokeColor=#d79b00;fontColor=#333333;shape=note" vertex="1" parent="node_root_gSz">
          <mxGeometry x="30" y="1350" width="160" height="160" as="geometry"/>
        </mxCell>
        <mxCell id="gSz-33" value="process" style="whiteSpace=wrap;html=1;sketch=1;fillColor=#ffe6cc;strokeColor=#d79b00;fontColor=#333333;shape=process" vertex="1" parent="node_root_gSz">
          <mxGeometry x="230" y="1370" width="200" height="120" as="geometry"/>
        </mxCell>
        <mxCell id="gSz-34" value="rectangle" style="whiteSpace=wrap;html=1;sketch=1;fillColor=#ffe6cc;strokeColor=#d79b00;fontColor=#333333" vertex="1" parent="node_root_gSz">
          <mxGeometry x="450" y="1370" width="200" height="120" as="geometry"/>
        </mxCell>
        <mxCell id="gSz-35" value="rectangle2" style="whiteSpace=wrap;html=1;sketch=1;fillColor=#ffe6cc;strokeColor=#d79b00;fontColor=#333333;shape=mxgraph.basic.cloud_rect" vertex="1" parent="node_root_gSz">
          <mxGeometry x="670" y="1370" width="200" height="120" as="geometry"/>
        </mxCell>
        <mxCell id="gSz-36" value="square" style="whiteSpace=wrap;html=1;sketch=1;fillColor=#ffe6cc;strokeColor=#d79b00;fontColor=#333333" vertex="1" parent="node_root_gSz">
          <mxGeometry x="910" y="1350" width="160" height="160" as="geometry"/>
        </mxCell>
        <mxCell id="gSz-37" value="step" style="whiteSpace=wrap;html=1;sketch=1;fillColor=#ffe6cc;strokeColor=#d79b00;fontColor=#333333;shape=step;perimeter=stepPerimeter;fixedSize=1" vertex="1" parent="node_root_gSz">
          <mxGeometry x="50" y="1610" width="120" height="80" as="geometry"/>
        </mxCell>
        <mxCell id="gSz-38" value="tick" style="whiteSpace=wrap;html=1;sketch=1;fillColor=#ffe6cc;strokeColor=#d79b00;fontColor=#333333;verticalLabelPosition=bottom;verticalAlign=top;shape=mxgraph.basic.tick" vertex="1" parent="node_root_gSz">
          <mxGeometry x="305" y="1625" width="50" height="50" as="geometry"/>
        </mxCell>
        <mxCell id="gSz-39" value="todo" style="whiteSpace=wrap;html=1;sketch=1;fillColor=#ffe6cc;strokeColor=#d79b00;fontColor=#333333" vertex="1" parent="node_root_gSz">
          <mxGeometry x="400" y="1620" width="300" height="60" as="geometry"/>
        </mxCell>
        <mxCell id="gSz-40" value="face" style="whiteSpace=wrap;html=1;sketch=1;fillColor=#ffe6cc;strokeColor=#d79b00;fontColor=#333333;verticalLabelPosition=bottom;verticalAlign=top;shape=mxgraph.basic.smiley" vertex="1" parent="node_root_gSz">
          <mxGeometry x="720" y="1600" width="100" height="100" as="geometry"/>
        </mxCell>
        <mxCell id="gSz-41" value="triangle" style="whiteSpace=wrap;html=1;sketch=1;fillColor=#ffe6cc;strokeColor=#d79b00;fontColor=#333333;triangle" vertex="1" parent="node_root_gSz">
          <mxGeometry x="940" y="1600" width="100" height="100" as="geometry"/>
        </mxCell>
        <mxCell id="gSz-42" value="embed_row" style="whiteSpace=wrap;html=1;sketch=1;fillColor=#ffe6cc;strokeColor=#d79b00;fontColor=#333333;shape=partialRectangle;collapsible=0;dropTarget=0;pointerEvents=0;top=0;left=0;bottom=1;right=0;points=[[0,0.5],[1,0.5]];portConstraint=eastwest" vertex="1" parent="node_root_gSz">
          <mxGeometry x="10" y="1850" width="200" height="40" as="geometry"/>
        </mxCell>
        <mxCell id="gSz-43" value="embed_col50" style="whiteSpace=wrap;html=1;sketch=1;fillColor=#ffe6cc;strokeColor=#d79b00;fontColor=#333333;shape=partialRectangle;connectable=0;top=0;left=0;bottom=0;right=0;fontStyle=1;overflow=hidden" vertex="1" parent="node_root_gSz">
          <mxGeometry x="305" y="1850" width="50" height="40" as="geometry"/>
        </mxCell>
        <mxCell id="gSz-44" value="embed_col200" style="whiteSpace=wrap;html=1;sketch=1;fillColor=#ffe6cc;strokeColor=#d79b00;fontColor=#333333;shape=partialRectangle;connectable=0;top=0;left=0;bottom=0;right=0;align=left;spacingLeft=6;overflow=hidden" vertex="1" parent="node_root_gSz">
          <mxGeometry x="475" y="1850" width="150" height="40" as="geometry"/>
        </mxCell>
      </root>
    </mxGraphModel>
  </diagram>
</mxfile>